<?xml version="1.0" encoding="UTF-8"?>
<svg version="1.1" xmlns="http://www.w3.org/2000/svg" width="720" height="720">
<path d="M0 0 C0.77706582 -0.00467997 1.55413164 -0.00935994 2.35474491 -0.01418173 C4.93711397 -0.02606889 7.51894614 -0.0166994 10.10131836 -0.00723267 C11.96141874 -0.01130116 13.8215167 -0.01664461 15.68161011 -0.02316284 C20.71876354 -0.03680911 25.75573209 -0.03154888 30.79288864 -0.02202559 C36.07156614 -0.01441507 41.35022811 -0.02147847 46.62890625 -0.02618408 C55.49246046 -0.03163757 64.35593961 -0.02446067 73.21948242 -0.01016235 C83.45785443 0.00616335 93.6960472 0.00087456 103.93441486 -0.01564157 C112.73464393 -0.029268 121.53481914 -0.03117043 130.33505535 -0.02332556 C135.58677291 -0.01865542 140.8384063 -0.0180061 146.09011841 -0.02793503 C151.02812185 -0.03661922 155.96589482 -0.03055618 160.90387344 -0.01325226 C162.71303043 -0.00929519 164.5222069 -0.01040808 166.33135605 -0.01704025 C168.80693809 -0.02527683 171.28178839 -0.01490921 173.75732422 0 C174.46784471 -0.00669217 175.17836519 -0.01338433 175.9104166 -0.02027929 C181.91071114 0.04948731 187.40105111 1.35656145 192.12084961 5.21298218 C192.65967773 5.86653687 193.19850586 6.52009155 193.75366211 7.19345093 C194.30795898 7.83927124 194.86225586 8.48509155 195.43334961 9.15048218 C200.74729653 17.35119486 198.96860692 27.45151995 197.05444336 36.55282593 C196.56034521 38.76249352 196.0459568 40.96656557 195.52587891 43.17025757 C194.16938302 48.94269507 193.05549384 54.72230425 192.06616211 60.56845093 C191.72904708 62.55024295 191.39179955 64.53201244 191.05444336 66.51376343 C190.77721436 68.14233276 190.77721436 68.14233276 190.49438477 69.80380249 C189.28047917 76.85619929 188.01731151 83.89982341 186.75366211 90.94345093 C186.60907562 91.74977966 186.46448914 92.5561084 186.31552124 93.38687134 C182.52387286 114.50693414 178.59351675 135.60146587 174.67442322 156.69816589 C173.39575121 163.58465711 172.12353666 170.47229513 170.85913086 177.36141968 C170.70556625 178.19802124 170.55200165 179.0346228 170.39378357 179.89657593 C170.09548009 181.52195889 169.79719567 183.14734535 169.49893188 184.7727356 C167.25446271 197.00312211 164.96480335 209.22237859 162.58496094 221.42733765 C161.40393624 227.52215427 160.30362464 233.62556537 159.26464844 239.7461853 C154.61345058 267.14225178 154.61345058 267.14225178 147.87866211 273.38095093 C142.83378395 276.65821079 137.88281237 278.50505529 131.84887695 278.51034546 C130.26598877 278.51499062 130.26598877 278.51499062 128.65112305 278.51972961 C127.47582031 278.51776077 126.30051758 278.51579193 125.08959961 278.51376343 C123.8235791 278.51521866 122.55755859 278.51667389 121.25317383 278.51817322 C117.6792608 278.52125783 114.10539342 278.5168128 110.53148651 278.51012802 C108.25278256 278.50594931 105.97407963 278.50298011 103.69537354 278.50024414 C91.88389371 278.4844233 80.07255926 278.44138238 68.26116943 278.39409637 C64.67940532 278.38017656 61.09763831 278.36743695 57.51586914 278.35488892 C42.57367772 278.30166551 27.63166411 278.23450335 12.68966103 278.14202118 C5.77552122 278.09938078 -1.13857165 278.06121962 -8.05279541 278.0350647 C-14.65880254 278.0099268 -21.2645874 277.9690208 -27.87045288 277.91789055 C-30.33730161 277.90119921 -32.80419047 277.88959352 -35.27108765 277.88330269 C-38.67276411 277.87372685 -42.0738179 277.84580527 -45.4753418 277.81332397 C-46.97068671 277.81547755 -46.97068671 277.81547755 -48.49624062 277.81767464 C-54.68866192 277.73347562 -59.2136126 277.00826665 -63.98461914 272.69735718 C-64.46286133 272.11856812 -64.94110352 271.53977905 -65.43383789 270.94345093 C-65.9249707 270.36723999 -66.41610352 269.79102905 -66.92211914 269.19735718 C-71.6760735 261.99674226 -68.80548871 251.41280517 -67.29321289 243.59188843 C-67.10293518 242.57156525 -66.91265747 241.55124207 -66.71661377 240.5 C-66.10911038 237.25050356 -65.49067074 234.00321137 -64.87133789 230.75595093 C-64.07181284 226.51426012 -63.27641827 222.27179718 -62.48071289 218.02938843 C-62.28382874 216.98374222 -62.08694458 215.93809601 -61.88409424 214.86076355 C-59.04758502 199.74634443 -56.34132424 184.59954156 -54.12133789 169.38095093 C-55.2180481 169.4045166 -55.2180481 169.4045166 -56.33691406 169.42855835 C-59.66080949 169.49105444 -62.98458109 169.52998845 -66.30883789 169.56845093 C-67.45932617 169.59358765 -68.60981445 169.61872437 -69.79516602 169.6446228 C-71.46289062 169.65912476 -71.46289062 169.65912476 -73.16430664 169.67391968 C-74.69607544 169.69748535 -74.69607544 169.69748535 -76.25878906 169.7215271 C-80.40188579 169.22859576 -82.99052917 167.4363724 -85.99633789 164.63095093 C-87.66788727 161.28785217 -86.96319977 158.94267426 -86.12133789 155.38095093 C-83.65498326 151.68141898 -82.36264484 151.43830406 -78.12133789 150.38095093 C-74.77807617 150.15390015 -74.77807617 150.15390015 -71.19165039 150.18563843 C-69.25805664 150.1953064 -69.25805664 150.1953064 -67.28540039 150.20516968 C-65.93904347 150.2218763 -64.5926893 150.23880614 -63.24633789 150.25595093 C-61.87655272 150.26599429 -60.50676048 150.27511776 -59.13696289 150.28329468 C-55.79824033 150.30680681 -52.45988028 150.33967163 -49.12133789 150.38095093 C-48.98856445 149.28395874 -48.85579102 148.18696655 -48.71899414 147.05673218 C-48.54070804 145.60229292 -48.36231709 144.14786651 -48.18383789 142.69345093 C-48.09682617 141.97222046 -48.00981445 141.25098999 -47.92016602 140.50790405 C-47.8331543 139.80214233 -47.74614258 139.09638062 -47.65649414 138.36923218 C-47.53866577 137.40303955 -47.53866577 137.40303955 -47.41845703 136.41732788 C-47.07331253 134.05179764 -46.59663369 131.72344474 -46.12133789 129.38095093 C-46.83908386 129.38983337 -47.55682983 129.39871582 -48.29632568 129.40786743 C-55.06441383 129.48805583 -61.83243086 129.54893685 -68.60087204 129.58819962 C-72.08055659 129.60906401 -75.55984822 129.63735914 -79.03930664 129.68270874 C-83.04064682 129.7345332 -87.04157508 129.75390546 -91.04321289 129.77157593 C-92.29124695 129.79222107 -93.53928101 129.81286621 -94.82513428 129.83413696 C-96.56648651 129.83459015 -96.56648651 129.83459015 -98.34301758 129.83505249 C-99.87523956 129.84837616 -99.87523956 129.84837616 -101.43841553 129.86196899 C-104.85146681 129.25004695 -106.00462231 128.07469597 -108.12133789 125.38095093 C-109.12366147 122.01600748 -109.29634596 120.02264717 -108.37133789 116.63095093 C-107.12133789 114.38095093 -107.12133789 114.38095093 -104.12133789 112.38095093 C-101.40681458 112.14044189 -101.40681458 112.14044189 -98.08935547 112.15390015 C-96.22776543 112.15412674 -96.22776543 112.15412674 -94.3285675 112.15435791 C-92.97433309 112.16457112 -91.62010031 112.17500311 -90.26586914 112.18563843 C-88.8801036 112.18936926 -87.49433541 112.1922159 -86.10856628 112.19421387 C-82.46380309 112.20184485 -78.81919965 112.22148863 -75.17449951 112.24362183 C-71.454327 112.26409184 -67.73412863 112.27321805 -64.01391602 112.28329468 C-56.71631719 112.30473512 -49.41884994 112.33886449 -42.12133789 112.38095093 C-42.04786133 111.48956421 -42.04786133 111.48956421 -41.97290039 110.58016968 C-41.38814868 104.09749118 -40.37181977 97.76690692 -39.12133789 91.38095093 C-39.69461319 91.38761276 -40.26788849 91.3942746 -40.85853577 91.40113831 C-46.84476086 91.46769595 -52.83088019 91.5128361 -58.81738281 91.54574585 C-61.04919711 91.56079834 -63.28098199 91.58124491 -65.51269531 91.60726929 C-68.72736893 91.64380781 -71.94165018 91.66071308 -75.15649414 91.67391968 C-76.64440208 91.69714546 -76.64440208 91.69714546 -78.16236877 91.72084045 C-83.93048081 91.72223023 -88.05580858 91.22650372 -93.12133789 88.38095093 C-95.80860191 84.79793223 -96.21296987 83.1532776 -95.68383789 78.69345093 C-94.12133789 75.38095093 -94.12133789 75.38095093 -91.78491211 73.69223022 C-86.48417476 71.79497178 -81.52843966 72.0113166 -75.94165039 72.08798218 C-74.77374969 72.09222702 -73.605849 72.09647186 -72.40255737 72.10084534 C-68.68358003 72.11759693 -64.96515062 72.15524395 -61.24633789 72.19345093 C-58.72030407 72.20850226 -56.19426172 72.22218988 -53.66821289 72.23446655 C-47.48573524 72.26748901 -41.30357572 72.31765401 -35.12133789 72.38095093 C-34.93618118 71.26457245 -34.93618118 71.26457245 -34.74728394 70.12564087 C-33.13862083 60.4468751 -31.48540999 50.77711846 -29.7722168 41.11630249 C-29.42051411 39.11972844 -29.07353676 37.12231645 -28.73120117 35.12411499 C-28.22989459 32.20229571 -27.71239389 29.28373578 -27.19165039 26.36532593 C-27.04357941 25.48181458 -26.89550842 24.59830322 -26.74295044 23.6880188 C-25.27927259 15.65849717 -22.68019595 8.59822438 -16.12133789 3.38095093 C-10.84702246 0.77434646 -5.86848628 -0.05527339 0 0 Z M-8.12133789 19.38095093 C-9.04264212 21.69803306 -9.04264212 21.69803306 -9.61352539 24.49032593 C-9.86199219 25.57636108 -10.11045898 26.66239624 -10.36645508 27.78134155 C-11.75063009 34.38168968 -13.01810252 41.0003269 -14.24633789 47.63095093 C-14.54612237 49.23388021 -14.84626327 50.83674287 -15.14672852 52.43954468 C-15.79547098 55.9033796 -16.44209938 59.36760003 -17.0871582 62.8321228 C-18.35196517 69.62309356 -19.62584842 76.41235625 -20.89956665 83.20166016 C-21.08796112 84.20587006 -21.27635559 85.21007996 -21.47045898 86.24472046 C-21.7545462 87.75899628 -21.7545462 87.75899628 -22.04437256 89.30386353 C-22.62483386 92.39959571 -23.20449568 95.49547663 -23.78393555 98.59140015 C-25.48881315 107.69798984 -27.19682417 116.80386697 -28.93383789 125.90438843 C-29.49659133 128.854861 -30.05915416 131.80536975 -30.62133789 134.75595093 C-30.82874603 135.84445847 -30.82874603 135.84445847 -31.04034424 136.95495605 C-32.82702596 146.34920586 -34.55713062 155.75242735 -36.23852539 165.16610718 C-36.42216141 166.19401367 -36.60579742 167.22192017 -36.79499817 168.28097534 C-37.55135394 172.51776498 -38.30721702 176.75463963 -39.06051636 180.99197388 C-41.16777104 192.83210899 -43.34128358 204.65360462 -45.69555664 216.44735718 C-45.90525085 217.50055649 -46.11494507 218.5537558 -46.33099365 219.63887024 C-47.33262264 224.65806148 -48.34644264 229.67435948 -49.37866211 234.68734741 C-49.74235326 236.49141545 -50.10581005 238.29553075 -50.46899414 240.09970093 C-50.63727219 240.89546036 -50.80555023 241.69121979 -50.97892761 242.51109314 C-52.97891551 252.10539129 -52.97891551 252.10539129 -51.12133789 261.38095093 C-26.79139948 261.45096416 -2.46147611 261.50390137 21.86854267 261.53638744 C33.1648374 261.55187074 44.46106961 261.57298816 55.75732422 261.60726929 C65.60062789 261.63712691 75.44388631 261.65651528 85.28723401 261.66321641 C90.5014911 261.66713484 95.71561869 261.67637399 100.92983437 261.6981411 C105.83402771 261.71844883 110.73803774 261.72479634 115.64226913 261.72027397 C117.44547076 261.72110174 119.24867828 261.72710131 121.05184364 261.73856735 C123.50767536 261.75342228 125.96280861 261.74993049 128.4186554 261.74171448 C129.1375242 261.750453 129.85639301 261.75919153 130.59704572 261.76819485 C133.43830655 261.74237787 135.40278588 261.70588056 137.78778362 260.07739735 C139.60034932 257.25864106 139.96234764 254.06941338 140.50366211 250.81845093 C141.7864132 243.56544874 141.7864132 243.56544874 142.87866211 241.38095093 C143.28396721 238.79946921 143.65076462 236.2197457 144.00366211 233.63095093 C147.03421631 212.46338564 151.19029455 191.40157539 155.46044922 170.45248413 C158.48889604 155.54308311 161.17810969 140.56209037 163.75366211 125.56845093 C165.45041715 115.70045793 167.24835141 105.85218252 169.06616211 96.00595093 C169.35907069 94.41627385 169.65195777 92.8265928 169.94482422 91.23690796 C171.51782967 82.70700321 173.102213 74.17933033 174.7006073 65.65414429 C175.53750393 61.18465298 176.36938045 56.71423452 177.20059204 52.24368286 C177.60874537 50.05546626 178.01918194 47.86767421 178.43197632 45.68032837 C179.0123928 42.60371185 179.58499049 39.52573036 180.15600586 36.44735718 C180.33065369 35.5322789 180.50530151 34.61720062 180.6852417 33.6743927 C181.57363566 28.83852896 182.26063311 24.29927852 181.87866211 19.38095093 C179.43723871 16.93952753 178.12416374 17.1403394 174.79245955 17.11346412 C173.72452946 17.12015628 173.72452946 17.12015628 172.63502502 17.12698364 C171.87997569 17.12386366 171.12492635 17.12074368 170.34699672 17.11752915 C167.8035186 17.10951809 165.260277 17.11588482 162.71679688 17.12216187 C160.89873107 17.11945336 159.08066637 17.11589322 157.26260376 17.11154175 C152.31430426 17.10239814 147.36608785 17.10597027 142.41778684 17.11229992 C137.24751127 17.11735051 132.077243 17.11267102 126.90696716 17.10952759 C118.221982 17.10588486 109.5370308 17.11069472 100.85205078 17.12020874 C90.80232633 17.13109045 80.75268303 17.127571 70.70296055 17.11655593 C62.08552783 17.10748769 53.46811958 17.10619561 44.85068363 17.11143327 C39.69909804 17.11455596 34.54755064 17.11495419 29.39596748 17.10836029 C24.55249472 17.10259431 19.70912684 17.10657 14.86566544 17.1181488 C13.08504981 17.12079955 11.30442541 17.12002327 9.52381325 17.11562347 C7.09884951 17.11018278 4.6742248 17.11698407 2.24928284 17.12698364 C1.18469883 17.12029148 1.18469883 17.12029148 0.09860808 17.11346412 C-3.54059333 17.14270191 -5.0016841 17.30118173 -8.12133789 19.38095093 Z " fill="#0C2944" transform="translate(160.121337890625,214.61904907226563)"/>
<path d="M0 0 C1.01900391 -0.00128906 2.03800781 -0.00257813 3.08789062 -0.00390625 C4.15072266 -0.00003906 5.21355469 0.00382812 6.30859375 0.0078125 C7.90864258 0.00201172 7.90864258 0.00201172 9.54101562 -0.00390625 C11.06758789 -0.00197266 11.06758789 -0.00197266 12.625 0 C14.02600952 0.00169189 14.02600952 0.00169189 15.45532227 0.00341797 C17.74609375 0.1328125 17.74609375 0.1328125 19.74609375 1.1328125 C19.4521299 8.36432316 18.40481108 15.31386062 16.93359375 22.3828125 C15.44247701 29.5502707 14.1046542 36.71858769 12.93359375 43.9453125 C10.9751411 55.94942902 8.84589087 67.91978262 6.67358398 79.88671875 C6.3656191 81.58461664 6.05776015 83.28253374 5.75 84.98046875 C5.5138221 86.28324265 5.5138221 86.28324265 5.27287292 87.61233521 C4.15492861 93.80414971 3.07133421 100.00141971 2.00151062 106.20172119 C1.20418067 110.81547419 0.39700882 115.42748163 -0.41104126 120.03936768 C-0.80552485 122.30563297 -1.1954975 124.57268821 -1.5809021 126.84051514 C-2.12175246 130.01952085 -2.67828409 133.19541344 -3.23828125 136.37109375 C-3.39744522 137.3306749 -3.55660919 138.29025604 -3.72059631 139.27891541 C-3.95703102 140.59358543 -3.95703102 140.59358543 -4.19824219 141.93481445 C-4.33035095 142.70098587 -4.46245972 143.46715729 -4.59857178 144.25654602 C-5.25390625 146.1328125 -5.25390625 146.1328125 -8.25390625 148.1328125 C-10.76586914 148.39160156 -10.76586914 148.39160156 -13.7265625 148.3984375 C-14.79068359 148.40101563 -15.85480469 148.40359375 -16.95117188 148.40625 C-18.06169922 148.39851562 -19.17222656 148.39078125 -20.31640625 148.3828125 C-21.43080078 148.39054688 -22.54519531 148.39828125 -23.69335938 148.40625 C-24.75619141 148.40367187 -25.81902344 148.40109375 -26.9140625 148.3984375 C-27.88996338 148.39618164 -28.86586426 148.39392578 -29.87133789 148.39160156 C-32.25390625 148.1328125 -32.25390625 148.1328125 -34.25390625 146.1328125 C-34.14575195 144.07055664 -34.14575195 144.07055664 -33.6171875 141.35546875 C-33.41561035 140.27281738 -33.2140332 139.19016602 -33.00634766 138.07470703 C-32.88696838 137.45492981 -32.76758911 136.83515259 -32.64459229 136.19659424 C-32.05080972 133.05996403 -31.50743189 129.91479456 -30.95773315 126.77018738 C-30.12875913 122.03515892 -29.28380757 117.30296719 -28.44140625 112.5703125 C-28.26504639 111.57834869 -28.08868652 110.58638489 -27.90698242 109.56436157 C-25.09266133 93.74051225 -22.22186701 77.92864212 -19.25390625 62.1328125 C-25.52390625 62.1328125 -31.79390625 62.1328125 -38.25390625 62.1328125 C-38.6528563 72.63849723 -37.92817781 79.23544731 -30.94140625 87.3203125 C-30.20277344 88.09761719 -29.46414063 88.87492187 -28.703125 89.67578125 C-27.25390625 92.1328125 -27.25390625 92.1328125 -27.74609375 95.01953125 C-29.43437259 98.50543342 -31.42896119 101.62913242 -33.69140625 104.7578125 C-34.08650391 105.31726563 -34.48160156 105.87671875 -34.88867188 106.453125 C-36.96404169 109.38143383 -39.08486798 112.27330867 -41.25390625 115.1328125 C-45.0739922 114.57482242 -46.80153013 112.93424588 -49.44140625 110.1953125 C-50.13621094 109.48503906 -50.83101562 108.77476562 -51.546875 108.04296875 C-53.25390625 106.1328125 -53.25390625 106.1328125 -54.25390625 104.1328125 C-54.91390625 104.1328125 -55.57390625 104.1328125 -56.25390625 104.1328125 C-57.45834793 105.69345498 -58.59103558 107.30962637 -59.69140625 108.9453125 C-62.85216705 113.38075968 -66.16142718 117.46048307 -69.94140625 121.3828125 C-71.27751953 122.78273438 -71.27751953 122.78273438 -72.640625 124.2109375 C-75.25390625 126.1328125 -75.25390625 126.1328125 -77.7265625 126.2578125 C-81.11931646 124.74759126 -83.45805196 122.51101248 -86.00390625 119.8828125 C-86.49761719 119.40457031 -86.99132812 118.92632812 -87.5 118.43359375 C-90.42535548 115.47617958 -91.91816341 113.31433698 -92.25390625 109.1328125 C-93.24390625 108.8028125 -94.23390625 108.4728125 -95.25390625 108.1328125 C-96.640625 106.13671875 -96.640625 106.13671875 -97.94140625 103.6953125 C-98.37839844 102.89222656 -98.81539062 102.08914063 -99.265625 101.26171875 C-100.25390625 99.1328125 -100.25390625 99.1328125 -100.25390625 97.1328125 C-103.33943823 100.16830882 -106.30829734 103.2607542 -109.19873047 106.4855957 C-112.88641062 110.5899666 -116.61313972 114.65814748 -120.62890625 118.4453125 C-121.21414063 118.99832031 -121.799375 119.55132812 -122.40234375 120.12109375 C-124.25390625 121.1328125 -124.25390625 121.1328125 -126.6171875 121.22265625 C-130.57814895 119.58545885 -132.52080099 116.74070035 -135.06640625 113.3828125 C-135.56849609 112.76148438 -136.07058594 112.14015625 -136.58789062 111.5 C-138.74182824 108.72186006 -140.13634409 106.83138435 -140.7265625 103.32421875 C-140.25390625 101.1328125 -140.25390625 101.1328125 -137.87890625 98.8203125 C-135.25390625 97.1328125 -135.25390625 97.1328125 -133.25390625 97.1328125 C-133.25390625 96.4728125 -133.25390625 95.8128125 -133.25390625 95.1328125 C-132.59390625 95.1328125 -131.93390625 95.1328125 -131.25390625 95.1328125 C-130.92390625 94.1428125 -130.59390625 93.1528125 -130.25390625 92.1328125 C-129.59390625 92.1328125 -128.93390625 92.1328125 -128.25390625 92.1328125 C-127.99222656 91.40191406 -127.73054688 90.67101562 -127.4609375 89.91796875 C-125.882953 86.2768589 -123.6161396 83.44519148 -121.203125 80.31640625 C-115.82531337 71.53300649 -113.24709046 62.08772595 -111.25390625 52.0703125 C-111.00680908 50.87672119 -110.75971191 49.68312988 -110.50512695 48.45336914 C-108.4717392 38.52067664 -106.60488897 28.55509759 -104.81445312 18.57592773 C-104.62302734 17.51059814 -104.43160156 16.44526855 -104.234375 15.34765625 C-103.98530396 13.94181274 -103.98530396 13.94181274 -103.73120117 12.50756836 C-103.25390625 10.1328125 -103.25390625 10.1328125 -102.25390625 7.1328125 C-99.71943752 5.86557813 -97.93163671 6.00339922 -95.09765625 6 C-94.07542969 5.99871094 -93.05320312 5.99742187 -92 5.99609375 C-90.92878906 5.99996094 -89.85757813 6.00382812 -88.75390625 6.0078125 C-87.14708984 6.00201172 -87.14708984 6.00201172 -85.5078125 5.99609375 C-84.48558594 5.99738281 -83.46335937 5.99867188 -82.41015625 6 C-81.46978516 6.00112793 -80.52941406 6.00225586 -79.56054688 6.00341797 C-77.25390625 6.1328125 -77.25390625 6.1328125 -75.25390625 7.1328125 C-76.0217643 14.61656333 -76.98267088 21.99195508 -78.5 29.36328125 C-80.82367654 40.68271623 -82.7420013 51.67241789 -82.81640625 63.2578125 C-82.83074707 64.22203125 -82.84508789 65.18625 -82.85986328 66.1796875 C-82.74616277 74.15276065 -80.56020248 81.03057184 -75.25390625 87.1328125 C-74.32500258 84.94988887 -73.41120342 82.76222032 -72.50390625 80.5703125 C-72.25125 79.98056641 -71.99859375 79.39082031 -71.73828125 78.78320312 C-66.61831662 66.30328933 -64.2522659 52.81814824 -61.69140625 39.6328125 C-61.39825125 38.14183562 -61.10463239 36.65094987 -60.81054688 35.16015625 C-59.66664798 29.35334309 -58.52558093 23.54607352 -57.40673828 17.734375 C-57.13844526 16.35675157 -56.87005757 14.97914657 -56.6015625 13.6015625 C-56.36574463 12.37888672 -56.12992676 11.15621094 -55.88696289 9.89648438 C-55.25390625 7.1328125 -55.25390625 7.1328125 -54.25390625 6.1328125 C-52.40021014 6.04543605 -50.54323084 6.02583097 -48.6875 6.03515625 C-47.56279297 6.03837891 -46.43808594 6.04160156 -45.27929688 6.04492188 C-44.09529297 6.05330078 -42.91128906 6.06167969 -41.69140625 6.0703125 C-40.50353516 6.07482422 -39.31566406 6.07933594 -38.09179688 6.08398438 C-35.14578399 6.09581575 -32.19986944 6.11229963 -29.25390625 6.1328125 C-27.90404862 9.923902 -28.54754096 12.96082991 -29.25 16.8671875 C-29.47880859 18.16269531 -29.70761719 19.45820313 -29.94335938 20.79296875 C-30.19253028 22.15628255 -30.44188153 23.51956341 -30.69140625 24.8828125 C-30.93760391 26.26158416 -31.18305509 27.64048933 -31.42773438 29.01953125 C-32.02910865 32.39194387 -32.64055385 35.7625578 -33.25390625 39.1328125 C-27.31390625 39.1328125 -21.37390625 39.1328125 -15.25390625 39.1328125 C-14.88265625 36.874375 -14.88265625 36.874375 -14.50390625 34.5703125 C-13.41746128 28.06727495 -12.30931192 21.56801286 -11.19140625 15.0703125 C-11.01706055 14.04671631 -10.84271484 13.02312012 -10.66308594 11.96850586 C-10.49583008 11.00050049 -10.32857422 10.03249512 -10.15625 9.03515625 C-10.00663818 8.16366943 -9.85702637 7.29218262 -9.70288086 6.39428711 C-9.25390625 4.1328125 -9.25390625 4.1328125 -8.25390625 1.1328125 C-5.22562213 0.12338446 -3.16662161 0.00381948 0 0 Z M-79.25390625 92.1328125 C-78.25390625 94.1328125 -78.25390625 94.1328125 -78.25390625 94.1328125 Z " fill="#0C2945" transform="translate(635.25390625,300.8671875)"/>
<path d="M0 0 C5.1479518 4.68852361 8.9488618 12.24075749 9.55078125 19.1875 C9.80492814 30.31645867 7.77521614 38.60364249 -0.00390625 46.78125 C-0.55949219 47.3278125 -1.11507812 47.874375 -1.6875 48.4375 C-2.6775 49.4275 -3.6675 50.4175 -4.6875 51.4375 C-0.7275 53.4175 3.2325 55.3975 7.3125 57.4375 C7.3125 58.0975 7.3125 58.7575 7.3125 59.4375 C7.9725 59.4375 8.6325 59.4375 9.3125 59.4375 C17.63626675 67.3400641 21.31527298 76.1870711 21.625 87.5625 C21.53074176 92.23417425 21.17869092 95.58296738 18.3125 99.4375 C13.77502274 103.07254504 9.60547128 102.85291431 4.0559082 102.79394531 C3.13180145 102.79598969 2.2076947 102.79803406 1.25558472 102.80014038 C-1.79205251 102.80314312 -4.83914604 102.78468922 -7.88671875 102.765625 C-10.00470343 102.76256694 -12.12269012 102.76069118 -14.24067688 102.75994873 C-18.67493408 102.75534917 -23.10900931 102.74093391 -27.54321289 102.71875 C-33.23647245 102.6904162 -38.92958903 102.67953291 -44.62291241 102.6750679 C-48.99367206 102.67091873 -53.36440263 102.66110629 -57.73514748 102.64919281 C-59.83518045 102.64348369 -61.93521623 102.63872712 -64.03525352 102.63492584 C-66.96325007 102.62807788 -69.89113173 102.61445373 -72.8190918 102.59863281 C-73.69236618 102.59751495 -74.56564056 102.59639709 -75.46537781 102.59524536 C-81.45811001 102.552195 -81.45811001 102.552195 -83.6875 101.4375 C-83.6875 100.7775 -83.6875 100.1175 -83.6875 99.4375 C-84.3475 99.4375 -85.0075 99.4375 -85.6875 99.4375 C-88.52027646 94.07013408 -87.23807258 89.92700402 -85.65625 84.390625 C-81.6397391 72.146745 -72.9486475 62.68664382 -61.6875 56.4375 C-57.41647385 54.57188547 -53.09913261 52.93800827 -48.6875 51.4375 C-49.31269531 50.69628906 -49.93789062 49.95507812 -50.58203125 49.19140625 C-52.38617032 46.83163252 -53.42599531 45.13424484 -54.375 42.375 C-54.72111328 41.39853516 -54.72111328 41.39853516 -55.07421875 40.40234375 C-58.17620662 30.46412782 -56.71598171 21.96304035 -52.6875 12.4375 C-51.17578125 9.58203125 -51.17578125 9.58203125 -49.6875 7.4375 C-49.0275 7.4375 -48.3675 7.4375 -47.6875 7.4375 C-47.6875 6.7775 -47.6875 6.1175 -47.6875 5.4375 C-47.0275 5.4375 -46.3675 5.4375 -45.6875 5.4375 C-45.3575 4.4475 -45.0275 3.4575 -44.6875 2.4375 C-44.0275 2.4375 -43.3675 2.4375 -42.6875 2.4375 C-42.6875 1.7775 -42.6875 1.1175 -42.6875 0.4375 C-29.15885769 -7.10399848 -13.2066525 -10.05409674 0 0 Z M-36.6875 16.4375 C-40.38576566 21.72073666 -41.13088705 26.00838782 -40.6875 32.4375 C-38.93350426 37.14559383 -36.88067052 39.69803915 -32.6875 42.4375 C-29.24730754 42.99348848 -29.24730754 42.99348848 -25.625 42.8125 C-24.41714844 42.79960937 -23.20929688 42.78671875 -21.96484375 42.7734375 C-18.95797706 42.4652247 -17.21793745 42.01507946 -14.6875 40.4375 C-14.6875 39.7775 -14.6875 39.1175 -14.6875 38.4375 C-14.089375 38.19 -13.49125 37.9425 -12.875 37.6875 C-10.23026039 36.17622022 -9.2311359 35.07508514 -7.6875 32.4375 C-6.94471122 26.95324285 -6.40290869 20.36861112 -8.671875 15.19140625 C-10.82527638 12.52623973 -13.40024092 10.37671688 -16.6875 9.4375 C-24.70377712 8.78042811 -30.72940554 10.81041079 -36.6875 16.4375 Z M-56.6875 71.4375 C-56.6875 72.0975 -56.6875 72.7575 -56.6875 73.4375 C-57.27015625 73.685 -57.8528125 73.9325 -58.453125 74.1875 C-61.01864236 75.62275446 -62.52474798 77.21413013 -64.4375 79.4375 C-65.35789063 80.489375 -65.35789063 80.489375 -66.296875 81.5625 C-67.88606922 83.3161657 -67.88606922 83.3161657 -67.6875 85.4375 C-43.9275 85.4375 -20.1675 85.4375 4.3125 85.4375 C2.40594516 76.82516285 2.40594516 76.82516285 -2.6875 71.4375 C-3.3475 71.4375 -4.0075 71.4375 -4.6875 71.4375 C-4.6875 70.7775 -4.6875 70.1175 -4.6875 69.4375 C-18.93177453 60.48395601 -43.12051362 62.12394719 -56.6875 71.4375 Z " fill="#0C2945" transform="translate(260.6875,255.5625)"/>
<path d="M0 0 C0.91837646 -0.00419449 1.83675293 -0.00838898 2.78295898 -0.01271057 C3.78826157 -0.00709106 4.79356415 -0.00147156 5.82933044 0.00431824 C6.88969513 0.00241989 7.95005981 0.00052155 9.04255676 -0.00143433 C12.55545899 -0.00514589 16.06815551 0.0055671 19.58103943 0.01676941 C22.01576717 0.01796104 24.45049537 0.01841441 26.88522339 0.01815796 C31.99048231 0.01972345 37.09567117 0.02801866 42.20091248 0.04142761 C48.75739458 0.0584265 55.31379969 0.06224173 61.87030125 0.06148243 C66.8981602 0.06175385 71.92600219 0.06723033 76.95385551 0.07448387 C79.37207346 0.07767436 81.79029333 0.07963883 84.20851326 0.08037758 C87.58215257 0.08253661 90.95570886 0.09127115 94.32933044 0.10197449 C95.33665726 0.1015213 96.34398407 0.10106812 97.38183594 0.1006012 C98.29739258 0.10486618 99.21294922 0.10913116 100.15625 0.11352539 C100.95431344 0.11520123 101.75237688 0.11687708 102.57462406 0.11860371 C104.51463318 0.24723816 104.51463318 0.24723816 106.51463318 1.24723816 C106.61065532 5.89221784 106.32406779 10.17124832 105.49119568 14.73942566 C105.27463318 15.93954285 105.05807068 17.13966003 104.83494568 18.37614441 C104.60549255 19.61235535 104.37603943 20.84856628 104.13963318 22.12223816 C103.91791443 23.35071472 103.69619568 24.57919128 103.46775818 25.84489441 C100.02559935 44.73627199 100.02559935 44.73627199 98.51463318 46.24723816 C96.5879581 46.33472023 94.65811457 46.3542115 92.72947693 46.34489441 C90.9747406 46.34006042 90.9747406 46.34006042 89.18455505 46.33512878 C87.95285583 46.32674988 86.72115662 46.31837097 85.45213318 46.30973816 C83.59878357 46.30297058 83.59878357 46.30297058 81.70799255 46.29606628 C78.64349201 46.28423424 75.57908596 46.26774989 72.51463318 46.24723816 C71.51463318 42.24723816 71.51463318 42.24723816 75.51463318 22.24723816 C47.46463318 22.24723816 19.41463318 22.24723816 -9.48536682 22.24723816 C-9.48536682 10.81634385 -9.48536682 10.81634385 -8.67286682 6.74723816 C-8.52204651 5.93255066 -8.3712262 5.11786316 -8.21583557 4.27848816 C-6.75921695 0.22799787 -3.80712488 -0.00259756 0 0 Z " fill="#0C2945" transform="translate(369.48536682128906,403.7527618408203)"/>
<path d="M0 0 C1.06004242 -0.00281982 2.12008484 -0.00563965 3.21224976 -0.00854492 C4.38011017 -0.00652069 5.54797058 -0.00449646 6.7512207 -0.00241089 C7.97725006 -0.00416321 9.20327942 -0.00591553 10.46646118 -0.00772095 C13.83415976 -0.01137546 17.20179715 -0.01050836 20.56949234 -0.00734186 C24.08929783 -0.00481495 27.60910066 -0.00715673 31.12890625 -0.00872803 C37.04045076 -0.01054875 42.95198278 -0.00814595 48.86352539 -0.00338745 C55.70384185 0.00205499 62.5441285 0.00029226 69.38444424 -0.00521386 C75.25113652 -0.00974774 81.11781982 -0.01039418 86.98451328 -0.00777519 C90.49117585 -0.00621394 93.99782441 -0.00601451 97.50448608 -0.00931168 C101.41226363 -0.01272915 105.32000763 -0.00799613 109.2277832 -0.00241089 C110.39564362 -0.00443512 111.56350403 -0.00645935 112.76675415 -0.00854492 C113.82679657 -0.0057251 114.88683899 -0.00290527 115.97900391 0 C116.90373001 0.00037703 117.82845612 0.00075405 118.78120422 0.0011425 C120.98950195 0.12698364 120.98950195 0.12698364 122.98950195 1.12698364 C122.49463851 8.84002772 120.90058215 15.48266287 118.98950195 23.12698364 C76.41950195 23.12698364 33.84950195 23.12698364 -10.01049805 23.12698364 C-10.01049805 17.33710326 -9.82725768 13.17039799 -8.63549805 7.68948364 C-8.38026367 6.47389771 -8.1250293 5.25831177 -7.86206055 4.00588989 C-7.58104492 3.05585083 -7.3000293 2.10581177 -7.01049805 1.12698364 C-4.50332169 -0.12660454 -2.80639643 0.00114421 0 0 Z " fill="#0B2945" transform="translate(367.010498046875,374.8730163574219)"/>
<path d="M0 0 C0.97710937 -0.00128906 1.95421875 -0.00257813 2.9609375 -0.00390625 C3.98445313 -0.00003906 5.00796875 0.00382812 6.0625 0.0078125 C7.59777344 0.00201172 7.59777344 0.00201172 9.1640625 -0.00390625 C10.14117187 -0.00261719 11.11828125 -0.00132812 12.125 0 C13.02347656 0.00112793 13.92195313 0.00225586 14.84765625 0.00341797 C17.0625 0.1328125 17.0625 0.1328125 19.0625 1.1328125 C19.80331832 11.0309684 17.89582725 20.74393733 13.8671875 29.828125 C12.90930784 32.57156674 13.15708729 33.41442008 14.0625 36.1328125 C14.91071458 37.76137759 15.81240867 39.36260457 16.75 40.94140625 C17.28367187 41.85341797 17.81734375 42.76542969 18.3671875 43.70507812 C19.49568435 45.61234182 20.6258884 47.51859644 21.7578125 49.42382812 C22.29148437 50.33712891 22.82515625 51.25042969 23.375 52.19140625 C24.11169922 53.43361938 24.11169922 53.43361938 24.86328125 54.70092773 C26.09469831 57.19810716 26.64695907 59.3905479 27.0625 62.1328125 C12.84890777 71.1328125 12.84890777 71.1328125 6.6328125 71.1328125 C2.77600639 69.63229219 1.28199348 66.60676246 -0.75 63.1953125 C-1.15669922 62.54884766 -1.56339844 61.90238281 -1.98242188 61.23632812 C-4.9375 56.45357143 -4.9375 56.45357143 -4.9375 54.1328125 C-5.5975 54.1328125 -6.2575 54.1328125 -6.9375 54.1328125 C-7.22560547 54.96619141 -7.22560547 54.96619141 -7.51953125 55.81640625 C-9.55127534 59.13548131 -12.48408402 61.0153011 -15.625 63.1953125 C-16.22505859 63.62908203 -16.82511719 64.06285156 -17.44335938 64.50976562 C-22.11141704 67.80398033 -26.73806436 70.88159755 -32.57421875 71.33984375 C-36.51148684 69.32890848 -37.84584901 65.67613904 -39.75 61.8203125 C-40.15669922 61.04751953 -40.56339844 60.27472656 -40.98242188 59.47851562 C-42.95916218 55.61473583 -43.9375 53.59592981 -43.9375 49.1328125 C-43.04289062 48.73191406 -42.14828125 48.33101563 -41.2265625 47.91796875 C-29.43279321 42.44976995 -18.05089939 34.98977232 -13.23876953 22.28857422 C-11.39999342 16.97130841 -9.81379423 11.56968511 -8.42382812 6.11816406 C-7.98416192 4.44076051 -7.46691625 2.784087 -6.9375 1.1328125 C-4.45581386 -0.10803057 -2.77323801 0.00348147 0 0 Z " fill="#0C2945" transform="translate(404.9375,300.8671875)"/>
<path d="M0 0 C1.11826172 0.00966797 2.23652344 0.01933594 3.38867188 0.02929688 C5.13954102 0.06700195 5.13954102 0.06700195 6.92578125 0.10546875 C8.10462891 0.11900391 9.28347656 0.13253906 10.49804688 0.14648438 C13.41191536 0.18187549 16.3248707 0.23125066 19.23828125 0.29296875 C18.72335625 6.64151695 17.87531198 12.73133919 16.36328125 18.91796875 C16.20214844 19.61664063 16.04101562 20.3153125 15.875 21.03515625 C14.69858142 25.95969915 13.0911836 30.58130278 11.23828125 35.29296875 C12.22828125 35.62296875 13.21828125 35.95296875 14.23828125 36.29296875 C14.23828125 36.95296875 14.23828125 37.61296875 14.23828125 38.29296875 C14.80160156 38.54691406 15.36492187 38.80085938 15.9453125 39.0625 C18.54444957 40.45726691 20.64459096 42.11070086 22.92578125 43.98046875 C27.64698971 47.81776597 32.42477668 51.5723855 37.23828125 55.29296875 C36.40505342 60.107174 34.07598745 61.4734295 30.23828125 64.29296875 C29.57828125 64.29296875 28.91828125 64.29296875 28.23828125 64.29296875 C28.23828125 64.95296875 28.23828125 65.61296875 28.23828125 66.29296875 C25.2362148 69.30416002 22.09727211 71.07822103 17.98828125 72.10546875 C9.50378297 70.26716079 2.60306691 62.950556 -3.76171875 57.29296875 C-7.89090766 60.01082279 -7.89090766 60.01082279 -11.88671875 62.91796875 C-14.57948121 64.89266122 -16.79969962 66.09927362 -20.08984375 66.76171875 C-22.76171875 66.29296875 -22.76171875 66.29296875 -25.21875 63.40625 C-26.02239516 62.15096954 -26.8069901 60.88333211 -27.57421875 59.60546875 C-27.98091797 58.97962891 -28.38761719 58.35378906 -28.80664062 57.70898438 C-31.03599028 54.1307845 -32.30511156 51.53467679 -31.76171875 47.29296875 C-30.95734375 47.02484375 -30.15296875 46.75671875 -29.32421875 46.48046875 C-28.05578125 45.89265625 -28.05578125 45.89265625 -26.76171875 45.29296875 C-26.43171875 44.30296875 -26.10171875 43.31296875 -25.76171875 42.29296875 C-25.10171875 42.29296875 -24.44171875 42.29296875 -23.76171875 42.29296875 C-23.76171875 41.63296875 -23.76171875 40.97296875 -23.76171875 40.29296875 C-23.10171875 40.29296875 -22.44171875 40.29296875 -21.76171875 40.29296875 C-21.53484375 39.63296875 -21.30796875 38.97296875 -21.07421875 38.29296875 C-19.98678911 35.80741528 -18.89167106 33.94853692 -17.38671875 31.73046875 C-12.3699111 23.84268563 -10.4367274 14.97028913 -9.3515625 5.7890625 C-8.07538546 0.38855171 -5.16586021 -0.07866792 0 0 Z " fill="#0C2945" transform="translate(459.76171875,300.70703125)"/>
<path d="M0 0 C1.10894119 -0.00571014 2.21788239 -0.01142029 3.36042786 -0.01730347 C4.57248901 -0.01842133 5.78455017 -0.01953918 7.03334045 -0.02069092 C8.31336441 -0.02565582 9.59338837 -0.03062073 10.91220093 -0.03573608 C14.42045185 -0.04883504 17.92868366 -0.05529977 21.43695521 -0.05974674 C23.62938553 -0.06268062 25.82181066 -0.06678596 28.01423836 -0.07125092 C34.87584595 -0.08491728 41.73744164 -0.09458898 48.59906191 -0.09845281 C56.51662782 -0.10293604 64.4340213 -0.12049969 72.35153478 -0.1494534 C78.47478875 -0.17106789 84.59799417 -0.18115691 90.72128588 -0.18249393 C94.37730676 -0.18354183 98.03316536 -0.18944682 101.68914604 -0.20731354 C105.76622371 -0.2268518 109.84293993 -0.22250623 113.9200592 -0.21600342 C115.13009613 -0.2252182 116.34013306 -0.23443298 117.58683777 -0.243927 C119.25447929 -0.23557327 119.25447929 -0.23557327 120.95581055 -0.22705078 C121.9194197 -0.22851734 122.88302885 -0.2299839 123.87583828 -0.2314949 C127.08616561 0.21645577 128.93631307 1.2351546 131.54139709 3.14044189 C133.96307624 6.77296061 133.72413053 8.14383806 133.08827209 12.26934814 C132.54139709 14.14044189 132.54139709 14.14044189 130.66639709 16.07794189 C127.04482974 17.88872557 124.23606956 18.26846301 120.24101257 18.28088379 C118.59228401 18.28944901 118.59228401 18.28944901 116.9102478 18.29818726 C115.70394211 18.29930511 114.49763641 18.30042297 113.254776 18.30157471 C111.98465164 18.30653961 110.71452728 18.31150452 109.40591431 18.31661987 C105.92033073 18.3297352 102.4347664 18.33618702 98.94916201 18.34063053 C96.7713104 18.34356238 94.59346404 18.34766738 92.41561508 18.3521347 C85.60099043 18.36580675 78.78637779 18.37547509 71.97174037 18.3793366 C64.10623434 18.38381815 56.24090203 18.40137165 48.37544882 18.43033719 C42.29467749 18.45195294 36.21395504 18.4620408 30.13314569 18.46337771 C26.50170168 18.46442574 22.87042103 18.47033286 19.23901749 18.48819733 C15.18817345 18.50773788 11.13769318 18.50338951 7.08680725 18.49688721 C5.88455002 18.50610199 4.68229279 18.51531677 3.44360352 18.52481079 C2.33881149 18.51924164 1.23401947 18.51367249 0.0957489 18.50793457 C-0.86178473 18.50940113 -1.81931835 18.51086769 -2.80586815 18.51237869 C-6.92645021 17.93463676 -9.55871335 16.04033145 -12.45860291 13.14044189 C-13.01609419 6.22754991 -13.01609419 6.22754991 -11.20860291 2.70294189 C-7.94242679 -0.21328678 -4.22247968 0.0130399 0 0 Z " fill="#0C2742" transform="translate(154.45860290527344,403.85955810546875)"/>
<path d="M0 0 C1.10059753 -0.00426498 2.20119507 -0.00852997 3.33514404 -0.01292419 C4.54302078 -0.01247101 5.75089752 -0.01201782 6.99537659 -0.0115509 C8.26710724 -0.01490952 9.53883789 -0.01826813 10.84910583 -0.02172852 C14.33875969 -0.03056731 17.82838904 -0.03290656 21.31805301 -0.0335443 C24.23063385 -0.03449365 27.14320898 -0.0381722 30.05578762 -0.0417164 C36.92676684 -0.04986032 43.79773295 -0.05230067 50.66871643 -0.05158997 C57.75840389 -0.05098902 64.84801531 -0.0615444 71.93768352 -0.07733363 C78.02353475 -0.09040469 84.1093611 -0.09577405 90.19522625 -0.09513456 C93.83051003 -0.09487946 97.46572621 -0.09773697 101.10099602 -0.10831261 C105.15438421 -0.11978266 109.20760169 -0.11524944 113.26100159 -0.10920715 C114.4668541 -0.11482666 115.6727066 -0.12044617 116.9151001 -0.12623596 C118.57022614 -0.11994423 118.57022614 -0.11994423 120.25878906 -0.11352539 C121.21724448 -0.11407016 122.1756999 -0.11461493 123.16319942 -0.1151762 C126.7776237 0.24043711 128.89262331 1.33344972 131.44288635 3.88371277 C133.12417926 6.91004001 133.18135736 8.71441573 132.69288635 12.13371277 C130.54198184 15.47132322 129.48875836 16.8684221 125.69288635 18.13371277 C123.91544774 18.23037669 122.13459464 18.26866273 120.35453796 18.27415466 C119.24697144 18.27986481 118.13940491 18.28557495 116.99827576 18.29145813 C115.78261932 18.29257599 114.56696289 18.29369385 113.31446838 18.29484558 C111.39465149 18.30229294 111.39465149 18.30229294 109.43605042 18.30989075 C105.92360818 18.32300642 102.41118506 18.32945796 98.89872217 18.33390141 C96.70411961 18.3368332 94.50952227 18.34093819 92.31492233 18.34540558 C85.44797195 18.35907771 78.58103349 18.36874601 71.71407044 18.37260747 C63.78800445 18.37708905 55.86211084 18.39464267 47.93609726 18.42360806 C41.80861722 18.44522337 35.68118567 18.45531165 29.5536679 18.45664859 C25.89427874 18.45769664 22.23505168 18.46360444 18.57570267 18.4814682 C14.49372643 18.50100778 10.41211119 18.49666056 6.33009338 18.49015808 C5.11848541 18.49937286 3.90687744 18.50858765 2.65855408 18.51808167 C1.5453479 18.51251251 0.43214172 18.50694336 -0.71479797 18.50120544 C-1.67970594 18.502672 -2.64461391 18.50413857 -3.63876152 18.50564957 C-7.51061097 17.96595944 -10.31116585 16.44655304 -12.68211365 13.32121277 C-13.5680108 10.22057273 -13.20656544 8.21754748 -12.30711365 5.13371277 C-8.6797852 0.66000768 -5.57727204 0.00975561 0 0 Z " fill="#0A2943" transform="translate(161.30711364746094,371.8662872314453)"/>
<path d="M0 0 C1.11514732 -0.00744736 1.11514732 -0.00744736 2.25282288 -0.01504517 C4.71234055 -0.02965074 7.17179374 -0.03646589 9.63134766 -0.04199219 C11.34144085 -0.0477447 13.05153403 -0.05350243 14.7616272 -0.05926514 C18.34776103 -0.06977037 21.93387248 -0.07561625 25.52001953 -0.07910156 C30.11231939 -0.08458709 34.70432287 -0.10861827 39.29652977 -0.13707352 C42.82930361 -0.15570809 46.36200615 -0.16090592 49.89482498 -0.16243744 C51.58768968 -0.16546235 53.28055317 -0.17348547 54.9733696 -0.18662262 C57.34315222 -0.20370149 59.71221184 -0.20179872 62.08203125 -0.1953125 C63.12800728 -0.20913467 63.12800728 -0.20913467 64.19511414 -0.22323608 C68.51284339 -0.18626642 71.27038763 0.45848427 74.67041016 3.16113281 C76.5290993 7.265738 77.01678117 9.19493999 75.48291016 13.47363281 C73.67041016 16.16113281 73.67041016 16.16113281 70.67041016 18.16113281 C68.13045103 18.37047932 65.69849336 18.46518353 63.15722656 18.4675293 C62.39428787 18.47585281 61.63134918 18.48417633 60.84529114 18.49275208 C58.32079987 18.51686592 55.79656691 18.52562579 53.27197266 18.53222656 C51.51703819 18.54119187 49.76210451 18.5503137 48.00717163 18.55958557 C44.32686505 18.57608189 40.64664951 18.58377684 36.96630859 18.58666992 C32.25270395 18.59205434 27.53995607 18.62973354 22.8265934 18.67541409 C19.20115035 18.70517192 15.57591391 18.7123932 11.95035934 18.71339607 C10.21281383 18.71760096 8.47526785 18.73004612 6.73784256 18.75091362 C4.30538384 18.77780288 1.87491479 18.77301142 -0.55761719 18.76049805 C-1.27363602 18.77533234 -1.98965485 18.79016663 -2.72737122 18.80545044 C-6.61320989 18.7485908 -8.20092198 18.26642725 -11.24893188 15.77210999 C-13.49899257 12.94855263 -14.4153479 11.76297123 -14.32958984 8.16113281 C-13.25783235 5.49591577 -11.99467255 3.56625228 -10.32958984 1.16113281 C-6.81964881 -0.00884753 -3.65205087 0.00582075 0 0 Z " fill="#0D2A46" transform="translate(149.32958984375,434.8388671875)"/>
<path d="M0 0 C1.98 0 3.96 0 6 0 C6 1.65 6 3.3 6 5 C3.5625 4.1875 3.5625 4.1875 1 3 C0.67 2.01 0.34 1.02 0 0 Z " fill="#2A425B" transform="translate(473,301)"/>
</svg>
